<mxfile host="app.diagrams.net" modified="2023-01-18T23:19:17.099Z" agent="5.0 (Windows NT 10.0; Win64; x64) AppleWebKit/537.36 (KHTML, like Gecko) Chrome/108.0.0.0 Safari/537.36" etag="23ou9zXHO22xE0JVZfOG" version="20.8.5" type="github" pages="2">
  <diagram id="C5RBs43oDa-KdzZeNtuy" name="Page-1">
    <mxGraphModel dx="538" dy="444" grid="1" gridSize="10" guides="1" tooltips="1" connect="1" arrows="1" fold="1" page="1" pageScale="1" pageWidth="827" pageHeight="1169" math="0" shadow="0">
      <root>
        <mxCell id="WIyWlLk6GJQsqaUBKTNV-0" />
        <mxCell id="WIyWlLk6GJQsqaUBKTNV-1" parent="WIyWlLk6GJQsqaUBKTNV-0" />
        <mxCell id="YdvMjXxeVkzUbPn5aH6Y-5" style="edgeStyle=orthogonalEdgeStyle;rounded=0;orthogonalLoop=1;jettySize=auto;html=1;exitX=0.5;exitY=1;exitDx=0;exitDy=0;entryX=0.5;entryY=0;entryDx=0;entryDy=0;" parent="WIyWlLk6GJQsqaUBKTNV-1" source="WIyWlLk6GJQsqaUBKTNV-3" target="WIyWlLk6GJQsqaUBKTNV-7" edge="1">
          <mxGeometry relative="1" as="geometry" />
        </mxCell>
        <mxCell id="WIyWlLk6GJQsqaUBKTNV-3" value="CPU_IDLE" style="rounded=1;whiteSpace=wrap;html=1;fontSize=12;glass=0;strokeWidth=1;shadow=0;" parent="WIyWlLk6GJQsqaUBKTNV-1" vertex="1">
          <mxGeometry x="160" y="80" width="150" height="40" as="geometry" />
        </mxCell>
        <mxCell id="YdvMjXxeVkzUbPn5aH6Y-7" style="edgeStyle=orthogonalEdgeStyle;rounded=0;orthogonalLoop=1;jettySize=auto;html=1;exitX=0.5;exitY=1;exitDx=0;exitDy=0;entryX=0.5;entryY=0;entryDx=0;entryDy=0;" parent="WIyWlLk6GJQsqaUBKTNV-1" source="WIyWlLk6GJQsqaUBKTNV-7" target="YdvMjXxeVkzUbPn5aH6Y-0" edge="1">
          <mxGeometry relative="1" as="geometry" />
        </mxCell>
        <mxCell id="WIyWlLk6GJQsqaUBKTNV-7" value="CPU_READ_OPCODE" style="rounded=1;whiteSpace=wrap;html=1;fontSize=12;glass=0;strokeWidth=1;shadow=0;" parent="WIyWlLk6GJQsqaUBKTNV-1" vertex="1">
          <mxGeometry x="160" y="180" width="150" height="40" as="geometry" />
        </mxCell>
        <mxCell id="YdvMjXxeVkzUbPn5aH6Y-11" style="edgeStyle=orthogonalEdgeStyle;rounded=0;orthogonalLoop=1;jettySize=auto;html=1;exitX=0.5;exitY=1;exitDx=0;exitDy=0;" parent="WIyWlLk6GJQsqaUBKTNV-1" source="YdvMjXxeVkzUbPn5aH6Y-0" target="YdvMjXxeVkzUbPn5aH6Y-10" edge="1">
          <mxGeometry relative="1" as="geometry" />
        </mxCell>
        <mxCell id="YdvMjXxeVkzUbPn5aH6Y-0" value="CPU_READ_DATA1" style="rounded=1;whiteSpace=wrap;html=1;fontSize=12;glass=0;strokeWidth=1;shadow=0;" parent="WIyWlLk6GJQsqaUBKTNV-1" vertex="1">
          <mxGeometry x="160" y="290" width="150" height="40" as="geometry" />
        </mxCell>
        <mxCell id="YdvMjXxeVkzUbPn5aH6Y-19" style="edgeStyle=orthogonalEdgeStyle;rounded=0;orthogonalLoop=1;jettySize=auto;html=1;exitX=0.5;exitY=1;exitDx=0;exitDy=0;entryX=0.5;entryY=0;entryDx=0;entryDy=0;" parent="WIyWlLk6GJQsqaUBKTNV-1" source="YdvMjXxeVkzUbPn5aH6Y-1" target="YdvMjXxeVkzUbPn5aH6Y-2" edge="1">
          <mxGeometry relative="1" as="geometry" />
        </mxCell>
        <mxCell id="YdvMjXxeVkzUbPn5aH6Y-1" value="CPU_READ_DATA2" style="rounded=1;whiteSpace=wrap;html=1;fontSize=12;glass=0;strokeWidth=1;shadow=0;" parent="WIyWlLk6GJQsqaUBKTNV-1" vertex="1">
          <mxGeometry x="160" y="517" width="150" height="40" as="geometry" />
        </mxCell>
        <mxCell id="YdvMjXxeVkzUbPn5aH6Y-22" style="edgeStyle=orthogonalEdgeStyle;rounded=0;orthogonalLoop=1;jettySize=auto;html=1;exitX=0.5;exitY=1;exitDx=0;exitDy=0;entryX=0.5;entryY=0;entryDx=0;entryDy=0;" parent="WIyWlLk6GJQsqaUBKTNV-1" source="YdvMjXxeVkzUbPn5aH6Y-2" target="YdvMjXxeVkzUbPn5aH6Y-3" edge="1">
          <mxGeometry relative="1" as="geometry" />
        </mxCell>
        <mxCell id="YdvMjXxeVkzUbPn5aH6Y-2" value="CPU_EXECUTE" style="rounded=1;whiteSpace=wrap;html=1;fontSize=12;glass=0;strokeWidth=1;shadow=0;" parent="WIyWlLk6GJQsqaUBKTNV-1" vertex="1">
          <mxGeometry x="160" y="647" width="150" height="40" as="geometry" />
        </mxCell>
        <mxCell id="YdvMjXxeVkzUbPn5aH6Y-4" style="edgeStyle=orthogonalEdgeStyle;rounded=0;orthogonalLoop=1;jettySize=auto;html=1;exitX=0.5;exitY=1;exitDx=0;exitDy=0;entryX=0.5;entryY=0;entryDx=0;entryDy=0;" parent="WIyWlLk6GJQsqaUBKTNV-1" source="YdvMjXxeVkzUbPn5aH6Y-3" target="WIyWlLk6GJQsqaUBKTNV-3" edge="1">
          <mxGeometry relative="1" as="geometry">
            <Array as="points">
              <mxPoint x="235" y="860" />
              <mxPoint x="80" y="860" />
              <mxPoint x="80" y="40" />
              <mxPoint x="235" y="40" />
            </Array>
          </mxGeometry>
        </mxCell>
        <mxCell id="YdvMjXxeVkzUbPn5aH6Y-3" value="CPU_OUTPUT" style="rounded=1;whiteSpace=wrap;html=1;fontSize=12;glass=0;strokeWidth=1;shadow=0;" parent="WIyWlLk6GJQsqaUBKTNV-1" vertex="1">
          <mxGeometry x="160" y="777" width="150" height="40" as="geometry" />
        </mxCell>
        <mxCell id="YdvMjXxeVkzUbPn5aH6Y-6" value="Trigger Start*" style="text;html=1;align=center;verticalAlign=middle;resizable=0;points=[];autosize=1;strokeColor=none;fillColor=none;" parent="WIyWlLk6GJQsqaUBKTNV-1" vertex="1">
          <mxGeometry x="230" y="136" width="90" height="30" as="geometry" />
        </mxCell>
        <mxCell id="YdvMjXxeVkzUbPn5aH6Y-8" value="Trigger Next" style="text;html=1;align=center;verticalAlign=middle;resizable=0;points=[];autosize=1;strokeColor=none;fillColor=none;" parent="WIyWlLk6GJQsqaUBKTNV-1" vertex="1">
          <mxGeometry x="230" y="240" width="90" height="30" as="geometry" />
        </mxCell>
        <mxCell id="YdvMjXxeVkzUbPn5aH6Y-13" style="edgeStyle=orthogonalEdgeStyle;rounded=0;orthogonalLoop=1;jettySize=auto;html=1;exitX=0.5;exitY=1;exitDx=0;exitDy=0;entryX=0.5;entryY=0;entryDx=0;entryDy=0;" parent="WIyWlLk6GJQsqaUBKTNV-1" source="YdvMjXxeVkzUbPn5aH6Y-10" target="YdvMjXxeVkzUbPn5aH6Y-1" edge="1">
          <mxGeometry relative="1" as="geometry" />
        </mxCell>
        <mxCell id="YdvMjXxeVkzUbPn5aH6Y-17" style="edgeStyle=orthogonalEdgeStyle;rounded=0;orthogonalLoop=1;jettySize=auto;html=1;exitX=1;exitY=0.5;exitDx=0;exitDy=0;entryX=0.5;entryY=0;entryDx=0;entryDy=0;" parent="WIyWlLk6GJQsqaUBKTNV-1" source="YdvMjXxeVkzUbPn5aH6Y-10" target="YdvMjXxeVkzUbPn5aH6Y-2" edge="1">
          <mxGeometry relative="1" as="geometry">
            <Array as="points">
              <mxPoint x="410" y="415" />
              <mxPoint x="410" y="610" />
              <mxPoint x="235" y="610" />
            </Array>
          </mxGeometry>
        </mxCell>
        <mxCell id="YdvMjXxeVkzUbPn5aH6Y-10" value="Is &lt;br&gt;Two Operands Required" style="rhombus;whiteSpace=wrap;html=1;" parent="WIyWlLk6GJQsqaUBKTNV-1" vertex="1">
          <mxGeometry x="185" y="370" width="100" height="90" as="geometry" />
        </mxCell>
        <mxCell id="YdvMjXxeVkzUbPn5aH6Y-12" value="Yes" style="text;html=1;align=center;verticalAlign=middle;resizable=0;points=[];autosize=1;strokeColor=none;fillColor=none;" parent="WIyWlLk6GJQsqaUBKTNV-1" vertex="1">
          <mxGeometry x="230" y="470" width="40" height="30" as="geometry" />
        </mxCell>
        <mxCell id="YdvMjXxeVkzUbPn5aH6Y-15" value="No" style="text;html=1;align=center;verticalAlign=middle;resizable=0;points=[];autosize=1;strokeColor=none;fillColor=none;" parent="WIyWlLk6GJQsqaUBKTNV-1" vertex="1">
          <mxGeometry x="286" y="420" width="40" height="30" as="geometry" />
        </mxCell>
        <mxCell id="YdvMjXxeVkzUbPn5aH6Y-20" value="Trigger Next" style="text;html=1;align=center;verticalAlign=middle;resizable=0;points=[];autosize=1;strokeColor=none;fillColor=none;" parent="WIyWlLk6GJQsqaUBKTNV-1" vertex="1">
          <mxGeometry x="229" y="340" width="90" height="30" as="geometry" />
        </mxCell>
        <mxCell id="YdvMjXxeVkzUbPn5aH6Y-21" value="Trigger Next" style="text;html=1;align=center;verticalAlign=middle;resizable=0;points=[];autosize=1;strokeColor=none;fillColor=none;" parent="WIyWlLk6GJQsqaUBKTNV-1" vertex="1">
          <mxGeometry x="230" y="570" width="90" height="30" as="geometry" />
        </mxCell>
        <mxCell id="YdvMjXxeVkzUbPn5aH6Y-23" value="Execution Complete" style="text;html=1;align=center;verticalAlign=middle;resizable=0;points=[];autosize=1;strokeColor=none;fillColor=none;" parent="WIyWlLk6GJQsqaUBKTNV-1" vertex="1">
          <mxGeometry x="230" y="720" width="130" height="30" as="geometry" />
        </mxCell>
        <mxCell id="YdvMjXxeVkzUbPn5aH6Y-24" value="End of current Execution" style="text;html=1;align=center;verticalAlign=middle;resizable=0;points=[];autosize=1;strokeColor=none;fillColor=none;" parent="WIyWlLk6GJQsqaUBKTNV-1" vertex="1">
          <mxGeometry x="85" y="860" width="150" height="30" as="geometry" />
        </mxCell>
        <mxCell id="YdvMjXxeVkzUbPn5aH6Y-27" value="" style="endArrow=classic;html=1;rounded=0;entryX=0.802;entryY=-0.021;entryDx=0;entryDy=0;entryPerimeter=0;" parent="WIyWlLk6GJQsqaUBKTNV-1" target="WIyWlLk6GJQsqaUBKTNV-3" edge="1">
          <mxGeometry width="50" height="50" relative="1" as="geometry">
            <mxPoint x="280" y="40" as="sourcePoint" />
            <mxPoint x="270" y="50" as="targetPoint" />
          </mxGeometry>
        </mxCell>
        <mxCell id="YdvMjXxeVkzUbPn5aH6Y-28" value="Reset" style="text;html=1;align=center;verticalAlign=middle;resizable=0;points=[];autosize=1;strokeColor=none;fillColor=none;" parent="WIyWlLk6GJQsqaUBKTNV-1" vertex="1">
          <mxGeometry x="276" y="20" width="50" height="30" as="geometry" />
        </mxCell>
      </root>
    </mxGraphModel>
  </diagram>
  <diagram id="NMD2CmaUx876IDyroWMR" name="Simple Model">
    <mxGraphModel dx="1886" dy="397" grid="1" gridSize="10" guides="1" tooltips="1" connect="1" arrows="1" fold="1" page="1" pageScale="1" pageWidth="850" pageHeight="1100" math="0" shadow="0">
      <root>
        <mxCell id="0" />
        <mxCell id="1" parent="0" />
        <mxCell id="RXh1KM1tpKAd5CtE4--j-6" style="edgeStyle=orthogonalEdgeStyle;rounded=0;orthogonalLoop=1;jettySize=auto;html=1;exitX=0.75;exitY=1;exitDx=0;exitDy=0;entryX=0.75;entryY=0;entryDx=0;entryDy=0;" edge="1" parent="1" source="RXh1KM1tpKAd5CtE4--j-1" target="RXh1KM1tpKAd5CtE4--j-3">
          <mxGeometry relative="1" as="geometry" />
        </mxCell>
        <mxCell id="RXh1KM1tpKAd5CtE4--j-7" style="edgeStyle=orthogonalEdgeStyle;rounded=0;orthogonalLoop=1;jettySize=auto;html=1;exitX=0.25;exitY=1;exitDx=0;exitDy=0;entryX=0.25;entryY=0;entryDx=0;entryDy=0;" edge="1" parent="1" source="RXh1KM1tpKAd5CtE4--j-1" target="RXh1KM1tpKAd5CtE4--j-3">
          <mxGeometry relative="1" as="geometry" />
        </mxCell>
        <mxCell id="RXh1KM1tpKAd5CtE4--j-10" style="edgeStyle=orthogonalEdgeStyle;rounded=0;orthogonalLoop=1;jettySize=auto;html=1;exitX=1;exitY=0.25;exitDx=0;exitDy=0;entryX=-0.013;entryY=0.632;entryDx=0;entryDy=0;entryPerimeter=0;" edge="1" parent="1" source="RXh1KM1tpKAd5CtE4--j-1" target="RXh1KM1tpKAd5CtE4--j-2">
          <mxGeometry relative="1" as="geometry">
            <Array as="points">
              <mxPoint x="210" y="145" />
              <mxPoint x="338" y="145" />
            </Array>
          </mxGeometry>
        </mxCell>
        <mxCell id="RXh1KM1tpKAd5CtE4--j-1" value="CPU" style="rounded=0;whiteSpace=wrap;html=1;" vertex="1" parent="1">
          <mxGeometry x="90" y="70" width="120" height="120" as="geometry" />
        </mxCell>
        <mxCell id="RXh1KM1tpKAd5CtE4--j-12" style="edgeStyle=orthogonalEdgeStyle;rounded=0;orthogonalLoop=1;jettySize=auto;html=1;exitX=0;exitY=0.75;exitDx=0;exitDy=0;entryX=1;entryY=0.75;entryDx=0;entryDy=0;" edge="1" parent="1" source="RXh1KM1tpKAd5CtE4--j-2" target="RXh1KM1tpKAd5CtE4--j-1">
          <mxGeometry relative="1" as="geometry" />
        </mxCell>
        <mxCell id="RXh1KM1tpKAd5CtE4--j-2" value="ALU" style="rounded=0;whiteSpace=wrap;html=1;" vertex="1" parent="1">
          <mxGeometry x="340" y="70" width="120" height="120" as="geometry" />
        </mxCell>
        <mxCell id="RXh1KM1tpKAd5CtE4--j-4" style="edgeStyle=orthogonalEdgeStyle;rounded=0;orthogonalLoop=1;jettySize=auto;html=1;" edge="1" parent="1" source="RXh1KM1tpKAd5CtE4--j-3">
          <mxGeometry relative="1" as="geometry">
            <mxPoint x="150" y="420" as="targetPoint" />
          </mxGeometry>
        </mxCell>
        <mxCell id="RXh1KM1tpKAd5CtE4--j-3" value="Output" style="rounded=0;whiteSpace=wrap;html=1;" vertex="1" parent="1">
          <mxGeometry x="90" y="270" width="120" height="60" as="geometry" />
        </mxCell>
        <mxCell id="RXh1KM1tpKAd5CtE4--j-5" value="Output_Signal" style="text;html=1;align=center;verticalAlign=middle;resizable=0;points=[];autosize=1;strokeColor=none;fillColor=none;" vertex="1" parent="1">
          <mxGeometry x="140" y="385" width="100" height="30" as="geometry" />
        </mxCell>
        <mxCell id="RXh1KM1tpKAd5CtE4--j-8" value="CPU_regA" style="text;html=1;align=center;verticalAlign=middle;resizable=0;points=[];autosize=1;strokeColor=none;fillColor=none;" vertex="1" parent="1">
          <mxGeometry x="175" y="220" width="80" height="30" as="geometry" />
        </mxCell>
        <mxCell id="RXh1KM1tpKAd5CtE4--j-9" value="CPU_cntrlOutput" style="text;html=1;align=center;verticalAlign=middle;resizable=0;points=[];autosize=1;strokeColor=none;fillColor=none;" vertex="1" parent="1">
          <mxGeometry x="10" y="215" width="110" height="30" as="geometry" />
        </mxCell>
        <mxCell id="RXh1KM1tpKAd5CtE4--j-11" value="CPU_cntrlALU" style="text;html=1;align=center;verticalAlign=middle;resizable=0;points=[];autosize=1;strokeColor=none;fillColor=none;" vertex="1" parent="1">
          <mxGeometry x="215" y="115" width="100" height="30" as="geometry" />
        </mxCell>
        <mxCell id="RXh1KM1tpKAd5CtE4--j-13" value="ALU_acc" style="text;html=1;align=center;verticalAlign=middle;resizable=0;points=[];autosize=1;strokeColor=none;fillColor=none;" vertex="1" parent="1">
          <mxGeometry x="230" y="160" width="70" height="30" as="geometry" />
        </mxCell>
        <mxCell id="RXh1KM1tpKAd5CtE4--j-21" value="" style="endArrow=classic;html=1;rounded=0;entryX=0.003;entryY=0.206;entryDx=0;entryDy=0;entryPerimeter=0;" edge="1" parent="1">
          <mxGeometry width="50" height="50" relative="1" as="geometry">
            <mxPoint x="20" y="164.99999999999994" as="sourcePoint" />
            <mxPoint x="90.36000000000013" y="164.72000000000003" as="targetPoint" />
          </mxGeometry>
        </mxCell>
        <mxCell id="RXh1KM1tpKAd5CtE4--j-22" value="CPU_btnNext" style="text;html=1;align=center;verticalAlign=middle;resizable=0;points=[];autosize=1;strokeColor=none;fillColor=none;" vertex="1" parent="1">
          <mxGeometry x="-5" y="140" width="100" height="30" as="geometry" />
        </mxCell>
      </root>
    </mxGraphModel>
  </diagram>
</mxfile>
